<?xml version="1.0" encoding="UTF-8"?><svg xmlns="http://www.w3.org/2000/svg" viewBox="0 0 351.69 153.86"><defs><style>.d{fill:#7a7a77;}.e{opacity:.52;}</style></defs><g id="a"/><g id="b"><g id="c"><g class="e"><g><path class="d" d="M54.16,33.85h6.59l29.39,65.91h-9.6l-8.73-19.42h-27.96l-8.19,19.42h-9.64L54.16,33.85Zm13.78,38.14l-10.57-23.74-9.81,23.74h20.38Z"/><path class="d" d="M148,34.23h8.77V99.77h-9.43V48.77l-20.15,25.33h-1.74l-20.38-25.33v51h-9.38V34.23h8.88l21.78,26.92,21.65-26.92Z"/><path class="d" d="M190.2,99.77h-22.19V34.23h17.17c5.41,0,9.63,.73,12.67,2.18,3.03,1.45,5.35,3.46,6.94,6.01,1.6,2.55,2.39,5.5,2.39,8.84,0,6.44-3.33,11.06-9.99,13.84,4.79,.91,8.59,2.88,11.42,5.91,2.83,3.03,4.25,6.66,4.25,10.88,0,3.35-.86,6.33-2.58,8.96-1.72,2.63-4.25,4.77-7.58,6.43-3.33,1.66-7.5,2.49-12.5,2.49Zm-4.74-57.19h-8.07v19.7h6.24c5,0,8.56-.95,10.67-2.86,2.11-1.91,3.17-4.38,3.17-7.41,0-6.29-4-9.43-12.01-9.43Zm.7,28.05h-8.77v20.78h9.24c5.13,0,8.61-.4,10.44-1.2,1.83-.8,3.3-2.04,4.41-3.73,1.11-1.69,1.67-3.5,1.67-5.44s-.59-3.83-1.76-5.49c-1.17-1.66-2.84-2.89-5-3.71-2.16-.81-5.57-1.22-10.23-1.22Z"/><path class="d" d="M221.62,34.23h37.16v8.35h-27.77v19.99h26.83v8.4h-26.83v20.36h28.66v8.35h-38.05V34.23Z"/><path class="d" d="M271.86,99.77V34.23h16.42c6.63,0,11.89,1.64,15.79,4.93,3.89,3.28,5.84,7.73,5.84,13.32,0,3.82-.95,7.12-2.86,9.9-1.91,2.78-4.11,4.85-7.66,6.8l16.6,30.59h-11.17l-14.58-28.52s-3.48,0-6.55,0h-2.44v28.52h-9.38Zm12.2-57.56h-2.81v20.69h3.57c4.75,0,8.01-.41,9.78-1.22,1.77-.81,3.14-2.04,4.13-3.68s1.48-3.51,1.48-5.61-.55-3.93-1.64-5.61c-1.09-1.67-2.64-2.85-4.62-3.54-1.99-.69-5.28-1.03-9.88-1.03Z"/></g><g><path class="d" d="M158.81,112.81v9.92h-2.72v-7.61c0-1.52-.2-2.57-.61-3.17-.41-.6-1.11-.9-2.12-.9-.56,0-1.08,.13-1.55,.39-.47,.26-1.01,.71-1.61,1.37v9.92h-2.7v-13.67h2.7v1.8c1.38-1.38,2.72-2.07,4.04-2.07,1.73,0,3.08,.82,4.03,2.47,1.45-1.66,2.96-2.5,4.53-2.5,1.33,0,2.42,.48,3.28,1.46,.86,.97,1.29,2.45,1.29,4.44v8.07h-2.7v-8.1c0-1.14-.23-2.01-.7-2.61-.47-.6-1.13-.91-2.01-.91-1.12,0-2.16,.56-3.13,1.69Z"/><path class="d" d="M178,109.04c2.08,0,3.81,.67,5.18,2.01,1.38,1.34,2.07,3.03,2.07,5.06s-.7,3.61-2.09,4.91c-1.4,1.3-3.15,1.95-5.27,1.95s-3.76-.66-5.14-1.98c-1.38-1.32-2.07-2.97-2.07-4.95s.7-3.67,2.09-5c1.39-1.33,3.14-2,5.24-2Zm-.15,2.44c-1.3,0-2.36,.43-3.19,1.28-.83,.85-1.25,1.94-1.25,3.25s.43,2.38,1.28,3.2c.85,.83,1.95,1.24,3.28,1.24s2.41-.42,3.26-1.26c.85-.84,1.27-1.91,1.27-3.22s-.44-2.37-1.32-3.22c-.88-.85-1.99-1.28-3.33-1.28Z"/><path class="d" d="M197.02,109.07h2.93l-6.04,13.91h-.91l-6.18-13.91h2.96l3.69,8.41,3.55-8.41Z"/><path class="d" d="M203.76,103.32c.45,0,.83,.15,1.14,.46,.32,.31,.48,.68,.48,1.13s-.16,.81-.48,1.13-.7,.48-1.14,.48c-.42,0-.78-.16-1.1-.48-.32-.32-.48-.7-.48-1.12s.16-.79,.48-1.11c.32-.32,.68-.48,1.1-.48Zm-1.34,5.75h2.7v13.67h-2.7v-13.67Z"/><path class="d" d="M212.13,109.07v1.74c1.21-1.34,2.58-2.01,4.11-2.01,.85,0,1.64,.22,2.38,.66,.73,.44,1.29,1.04,1.67,1.81s.57,1.98,.57,3.65v7.81h-2.7v-7.78c0-1.4-.21-2.39-.64-2.99-.43-.6-1.14-.9-2.14-.9-1.28,0-2.36,.64-3.25,1.92v9.76h-2.76v-13.67h2.76Z"/><path class="d" d="M224.34,113.79c0-1.46,.53-2.61,1.6-3.45,1.06-.85,2.52-1.27,4.36-1.27h5.63v2.11h-2.76c.53,.54,.91,1.04,1.11,1.49s.31,.96,.31,1.53c0,.71-.2,1.41-.61,2.1-.41,.69-.93,1.22-1.57,1.58-.64,.37-1.69,.66-3.14,.88-1.02,.15-1.53,.5-1.53,1.05,0,.32,.19,.58,.57,.78,.38,.2,1.07,.41,2.07,.63,1.67,.37,2.75,.65,3.23,.86s.91,.51,1.3,.89c.65,.65,.98,1.48,.98,2.47,0,1.3-.58,2.33-1.73,3.1-1.15,.77-2.7,1.16-4.63,1.16s-3.51-.39-4.67-1.17c-1.16-.78-1.75-1.82-1.75-3.13,0-1.85,1.14-3.05,3.43-3.58-.91-.58-1.37-1.16-1.37-1.74,0-.44,.2-.83,.59-1.19s.92-.62,1.58-.79c-2.01-.89-3.02-2.33-3.02-4.32Zm4.44,9.58c-.91,0-1.66,.19-2.24,.58-.58,.39-.87,.88-.87,1.49,0,1.41,1.27,2.11,3.8,2.11,1.2,0,2.13-.18,2.79-.53,.66-.35,.99-.85,.99-1.49s-.42-1.15-1.25-1.55c-.83-.4-1.91-.6-3.22-.6Zm.64-11.96c-.73,0-1.36,.25-1.87,.74-.51,.5-.77,1.09-.77,1.78s.25,1.29,.76,1.75c.51,.46,1.14,.69,1.92,.69s1.4-.23,1.91-.71c.51-.47,.76-1.06,.76-1.76s-.26-1.31-.77-1.78c-.51-.48-1.16-.71-1.93-.71Z"/><path class="d" d="M258.47,112.81v9.92h-2.72v-7.61c0-1.52-.2-2.57-.61-3.17-.41-.6-1.11-.9-2.12-.9-.56,0-1.08,.13-1.55,.39s-1.01,.71-1.61,1.37v9.92h-2.7v-13.67h2.7v1.8c1.38-1.38,2.72-2.07,4.04-2.07,1.73,0,3.08,.82,4.03,2.47,1.44-1.66,2.96-2.5,4.53-2.5,1.33,0,2.42,.48,3.28,1.46,.86,.97,1.29,2.45,1.29,4.44v8.07h-2.7v-8.1c0-1.14-.23-2.01-.7-2.61-.47-.6-1.13-.91-2-.91-1.12,0-2.16,.56-3.14,1.69Z"/><path class="d" d="M279.83,122.74v-1.75c-.58,.63-1.23,1.12-1.97,1.47s-1.47,.52-2.21,.52c-.86,0-1.66-.22-2.38-.65-.73-.43-1.28-1.01-1.65-1.75-.37-.74-.56-1.96-.56-3.68v-7.83h2.7v7.79c0,1.43,.2,2.44,.62,3,.41,.57,1.13,.85,2.16,.85,1.29,0,2.38-.63,3.28-1.89v-9.76h2.7v13.67h-2.7Z"/><path class="d" d="M286.06,121.76v-2.91c.76,.53,1.54,.97,2.34,1.3,.8,.33,1.47,.5,2.01,.5s1.05-.14,1.46-.42c.41-.28,.61-.61,.61-.99s-.13-.73-.39-.99-.83-.64-1.7-1.14c-1.74-.97-2.89-1.8-3.42-2.49-.54-.69-.81-1.44-.81-2.25,0-1.05,.41-1.91,1.23-2.57,.82-.66,1.87-1,3.16-1s2.71,.38,4.11,1.13v2.67c-1.6-.97-2.92-1.46-3.94-1.46-.53,0-.95,.11-1.27,.33-.32,.22-.48,.52-.48,.89,0,.32,.15,.62,.44,.91,.29,.29,.81,.63,1.54,1.04l.97,.55c2.28,1.29,3.42,2.71,3.42,4.28,0,1.12-.44,2.04-1.32,2.76-.88,.72-2,1.08-3.38,1.08-.81,0-1.54-.09-2.17-.26-.63-.17-1.43-.49-2.39-.96Z"/><path class="d" d="M300.23,103.32c.45,0,.83,.15,1.14,.46,.32,.31,.48,.68,.48,1.13s-.16,.81-.48,1.13c-.32,.32-.7,.48-1.14,.48-.42,0-.78-.16-1.1-.48-.32-.32-.48-.7-.48-1.12s.16-.79,.48-1.11c.32-.32,.68-.48,1.1-.48Zm-1.34,5.75h2.7v13.67h-2.7v-13.67Z"/><path class="d" d="M316.15,119.54v2.67c-1.36,.5-2.68,.76-3.98,.76-2.14,0-3.85-.63-5.12-1.9-1.27-1.27-1.91-2.97-1.91-5.09s.62-3.88,1.86-5.2c1.24-1.32,2.87-1.98,4.89-1.98,.7,0,1.33,.07,1.89,.2,.56,.13,1.25,.38,2.07,.75v2.88c-1.37-.87-2.63-1.31-3.8-1.31s-2.22,.43-3,1.29c-.78,.86-1.17,1.95-1.17,3.27,0,1.4,.42,2.51,1.27,3.33,.85,.82,1.99,1.23,3.42,1.23,1.04,0,2.23-.3,3.58-.91Z"/></g><path class="d" d="M349.36,2.33V151.54H2.33V2.33H349.36m2.33-2.33H0V153.86H351.69V0h0Z"/></g></g></g></svg>