<?xml version="1.0" encoding="UTF-8"?><svg xmlns="http://www.w3.org/2000/svg" viewBox="0 0 108.66 47.54"><defs><style>.d{fill:#1d1d1b;}</style></defs><g id="a"/><g id="b"><g id="c"><g><g><path class="d" d="M16.73,10.46h2.04l9.08,20.37h-2.97l-2.7-6H13.54l-2.53,6h-2.98L16.73,10.46Zm4.26,11.78l-3.27-7.33-3.03,7.33h6.3Z"/><path class="d" d="M45.73,10.58h2.71V30.83h-2.91V15.07l-6.23,7.83h-.54l-6.3-7.83v15.76h-2.9V10.58h2.74l6.73,8.32,6.69-8.32Z"/><path class="d" d="M58.77,30.83h-6.86V10.58h5.31c1.67,0,2.98,.22,3.91,.67s1.65,1.07,2.15,1.86c.49,.79,.74,1.7,.74,2.73,0,1.99-1.03,3.42-3.09,4.28,1.48,.28,2.66,.89,3.53,1.83,.87,.94,1.31,2.06,1.31,3.36,0,1.03-.27,1.96-.8,2.77s-1.31,1.47-2.34,1.99-2.32,.77-3.86,.77Zm-1.46-17.67h-2.49v6.09h1.93c1.55,0,2.65-.29,3.3-.88,.65-.59,.98-1.35,.98-2.29,0-1.94-1.24-2.91-3.71-2.91Zm.22,8.67h-2.71v6.42h2.86c1.58,0,2.66-.12,3.22-.37s1.02-.63,1.36-1.15,.51-1.08,.51-1.68-.18-1.18-.54-1.7c-.36-.51-.88-.89-1.54-1.15-.67-.25-1.72-.38-3.16-.38Z"/><path class="d" d="M68.47,10.58h11.48v2.58h-8.58v6.18h8.29v2.59h-8.29v6.29h8.86v2.58h-11.76V10.58Z"/><path class="d" d="M84,30.83V10.58h5.07c2.05,0,3.67,.51,4.88,1.52s1.8,2.39,1.8,4.12c0,1.18-.29,2.2-.88,3.06-.59,.86-1.27,1.5-2.37,2.1l5.13,9.45h-3.45l-4.5-8.81s-1.08,0-2.02,0h-.75v8.81h-2.9Zm3.77-17.79h-.87v6.39h1.1c1.47,0,2.48-.13,3.02-.38,.55-.25,.97-.63,1.28-1.14s.46-1.08,.46-1.73-.17-1.22-.51-1.73c-.34-.52-.81-.88-1.43-1.09-.61-.21-1.63-.32-3.05-.32Z"/></g><g><path class="d" d="M49.07,34.86v3.07h-.84v-2.35c0-.47-.06-.79-.19-.98-.13-.19-.34-.28-.66-.28-.17,0-.33,.04-.48,.12-.15,.08-.31,.22-.5,.42v3.07h-.84v-4.22h.84v.56c.43-.43,.84-.64,1.25-.64,.54,0,.95,.25,1.24,.76,.45-.51,.91-.77,1.4-.77,.41,0,.75,.15,1.01,.45,.26,.3,.4,.76,.4,1.37v2.49h-.84v-2.5c0-.35-.07-.62-.22-.81-.14-.19-.35-.28-.62-.28-.35,0-.67,.17-.97,.52Z"/><path class="d" d="M55,33.69c.64,0,1.18,.21,1.6,.62,.43,.42,.64,.94,.64,1.56s-.22,1.11-.65,1.52-.97,.6-1.63,.6-1.16-.2-1.59-.61c-.43-.41-.64-.92-.64-1.53s.22-1.13,.65-1.54c.43-.41,.97-.62,1.62-.62Zm-.05,.75c-.4,0-.73,.13-.99,.39s-.39,.6-.39,1.01,.13,.73,.39,.99c.26,.26,.6,.38,1.01,.38s.75-.13,1.01-.39c.26-.26,.39-.59,.39-.99s-.14-.73-.41-1c-.27-.26-.62-.39-1.03-.39Z"/><path class="d" d="M60.87,33.7h.91l-1.87,4.3h-.28l-1.91-4.3h.91l1.14,2.6,1.1-2.6Z"/><path class="d" d="M62.96,31.92c.14,0,.26,.05,.35,.14s.15,.21,.15,.35-.05,.25-.15,.35-.22,.15-.35,.15c-.13,0-.24-.05-.34-.15-.1-.1-.15-.22-.15-.35s.05-.24,.15-.34c.1-.1,.21-.15,.34-.15Zm-.41,1.78h.84v4.22h-.84v-4.22Z"/><path class="d" d="M65.54,33.7v.54c.37-.41,.8-.62,1.27-.62,.26,0,.51,.07,.73,.2s.4,.32,.52,.56,.18,.61,.18,1.13v2.41h-.84v-2.41c0-.43-.07-.74-.2-.92s-.35-.28-.66-.28c-.39,0-.73,.2-1.01,.59v3.02h-.85v-4.22h.85Z"/><path class="d" d="M69.32,35.16c0-.45,.16-.81,.49-1.07,.33-.26,.78-.39,1.35-.39h1.74v.65h-.85c.17,.17,.28,.32,.34,.46s.1,.3,.1,.47c0,.22-.06,.44-.19,.65-.13,.21-.29,.38-.48,.49-.2,.11-.52,.2-.97,.27-.32,.05-.47,.15-.47,.33,0,.1,.06,.18,.18,.24,.12,.06,.33,.13,.64,.2,.52,.11,.85,.2,1,.27s.28,.16,.4,.28c.2,.2,.3,.46,.3,.76,0,.4-.18,.72-.53,.96-.36,.24-.83,.36-1.43,.36s-1.08-.12-1.44-.36c-.36-.24-.54-.56-.54-.97,0-.57,.35-.94,1.06-1.11-.28-.18-.42-.36-.42-.54,0-.13,.06-.26,.18-.37s.28-.19,.49-.24c-.62-.28-.93-.72-.93-1.34Zm1.37,2.96c-.28,0-.51,.06-.69,.18-.18,.12-.27,.27-.27,.46,0,.43,.39,.65,1.18,.65,.37,0,.66-.05,.86-.16,.2-.11,.31-.26,.31-.46s-.13-.36-.39-.48c-.26-.12-.59-.19-1-.19Zm.2-3.69c-.23,0-.42,.08-.58,.23s-.24,.34-.24,.55,.08,.4,.23,.54c.16,.14,.35,.21,.59,.21s.43-.07,.59-.22,.24-.33,.24-.54-.08-.4-.24-.55-.36-.22-.6-.22Z"/><path class="d" d="M79.86,34.86v3.07h-.84v-2.35c0-.47-.06-.79-.19-.98s-.34-.28-.66-.28c-.17,0-.33,.04-.48,.12s-.31,.22-.5,.42v3.07h-.84v-4.22h.84v.56c.43-.43,.84-.64,1.25-.64,.54,0,.95,.25,1.24,.76,.45-.51,.91-.77,1.4-.77,.41,0,.75,.15,1.01,.45s.4,.76,.4,1.37v2.49h-.84v-2.5c0-.35-.07-.62-.22-.81-.14-.19-.35-.28-.62-.28-.35,0-.67,.17-.97,.52Z"/><path class="d" d="M86.46,37.92v-.54c-.18,.19-.38,.35-.61,.45s-.46,.16-.68,.16c-.27,0-.51-.07-.74-.2-.22-.13-.39-.31-.51-.54-.11-.23-.17-.61-.17-1.14v-2.42h.84v2.41c0,.44,.06,.75,.19,.93,.13,.18,.35,.26,.67,.26,.4,0,.74-.19,1.01-.58v-3.02h.84v4.22h-.84Z"/><path class="d" d="M88.39,37.62v-.9c.24,.17,.48,.3,.72,.4,.25,.1,.45,.15,.62,.15s.32-.04,.45-.13c.13-.09,.19-.19,.19-.31s-.04-.22-.12-.31-.26-.2-.53-.35c-.54-.3-.89-.56-1.06-.77-.17-.21-.25-.44-.25-.7,0-.32,.13-.59,.38-.79,.25-.21,.58-.31,.98-.31s.84,.12,1.27,.35v.83c-.5-.3-.9-.45-1.22-.45-.16,0-.29,.03-.39,.1-.1,.07-.15,.16-.15,.27,0,.1,.04,.19,.13,.28,.09,.09,.25,.2,.47,.32l.3,.17c.7,.4,1.06,.84,1.06,1.32,0,.35-.14,.63-.41,.85-.27,.22-.62,.33-1.04,.33-.25,0-.47-.03-.67-.08-.2-.05-.44-.15-.74-.3Z"/><path class="d" d="M92.76,31.92c.14,0,.26,.05,.35,.14,.1,.09,.15,.21,.15,.35s-.05,.25-.15,.35c-.1,.1-.22,.15-.35,.15-.13,0-.24-.05-.34-.15-.1-.1-.15-.22-.15-.35s.05-.24,.15-.34c.1-.1,.21-.15,.34-.15Zm-.41,1.78h.83v4.22h-.83v-4.22Z"/><path class="d" d="M97.68,36.94v.83c-.42,.16-.83,.23-1.23,.23-.66,0-1.19-.2-1.58-.59-.39-.39-.59-.92-.59-1.57s.19-1.2,.57-1.61c.38-.41,.89-.61,1.51-.61,.22,0,.41,.02,.59,.06,.17,.04,.39,.12,.64,.23v.89c-.42-.27-.81-.4-1.18-.4s-.69,.13-.93,.4c-.24,.26-.36,.6-.36,1.01,0,.43,.13,.77,.39,1.03,.26,.25,.61,.38,1.06,.38,.32,0,.69-.09,1.11-.28Z"/></g><path class="d" d="M107.94,.72V46.82H.72V.72H107.94m.72-.72H0V47.54H108.66V0h0Z"/></g></g></g></svg>